<?xml version="1.0" encoding="UTF-8"?>
<svg width="100%" height="100%" viewBox="0 0 256 256" version="1.1" xmlns="http://www.w3.org/2000/svg"><g fill="#380f16" fill-rule="evenodd"><path id="path2" d="M171.134,10.115c0.706,1.277 1.031,3.018 0.85,4.053c-0.668,3.8 -3.02,5.433 -6.177,6.456c-17.173,5.565 -33.724,12.96 -49.238,22.051c-7.574,4.439 -14.895,9.297 -21.866,14.647c-17.701,13.585 -33.109,30.048 -42.288,50.274c-3.926,8.651 -6.584,17.9 -7.716,27.3c-0.84,6.98 -1.032,14.097 -0.165,21.183c0.922,7.526 3.168,14.914 6.982,21.473c2.919,5.02 6.541,9.614 10.953,13.397c16.009,13.726 38.348,20.202 57.903,22.535c15.197,1.813 29.539,1.052 43.283,-1.646c16.656,-3.271 35.205,-6.303 46.134,-19.15c3.637,-4.275 5.862,-9.958 5.366,-15.091c-0.832,-8.611 -6.318,-15.363 -12.911,-20.092c-2.547,-1.826 -5.3,-3.447 -8.319,-4.329c-0.596,-0.174 -1.199,-0.342 -1.759,-0.591c-2.067,-0.92 -3.61,-2.965 -3.963,-5.198c-0.309,-1.961 0.112,-3.916 1.237,-5.259c2.691,-3.211 6.011,-3.203 9.424,-2.112c3.849,1.23 7.512,3.078 10.996,5.136c5.441,3.214 10.553,7.091 14.52,11.986c4.536,5.6 8.044,11.92 9.72,17.837c2.628,9.28 1.529,19.312 -2.703,27.966c-4.406,9.012 -12.317,17.43 -19.292,22.706c-8.415,6.364 -18.268,11.999 -26.835,15.081c-16.145,5.809 -33.096,8.98 -47.79,8.718c-23.131,-0.413 -49.514,-8.324 -68.328,-18.39c-12.484,-6.679 -23.508,-15.565 -31.952,-26.468c-11.709,-15.117 -17.065,-36.463 -16.605,-53.416c0.646,-23.808 11.029,-49.666 23.321,-66.802c10.312,-14.375 23.526,-26.693 37.774,-37.166c17.675,-12.991 37.297,-23.386 57.737,-31.816c7.706,-3.178 15.527,-6.035 23.475,-8.547c3.247,-1.027 6.806,1.041 8.232,3.274Z"/><path id="path6" d="M102.759,140.491c2.404,0.748 3.816,3.067 4.414,5.416c1.88,7.39 4.876,14.435 7.161,21.7c0.566,1.799 1.157,3.648 1.228,5.543c-0.527,3.023 -2.755,5.323 -4.274,7.885c-1.198,2.019 -2.354,4.236 -4.251,5.633c-0.635,0.468 -1.429,-0.517 -2.002,-0.931c-2.904,-2.098 -5.352,-4.752 -8.033,-7.122c-1.298,-1.147 -2.392,-2.723 -2.273,-4.527c-0.252,-4.991 0.489,-9.962 0.814,-14.935c0.247,-3.761 0.564,-7.517 0.593,-11.286c0.017,-2.168 0.294,-4.463 1.912,-6.09c1.233,-1.241 3.045,-1.804 4.711,-1.286Z"/><path id="path10" d="M151.528,151.13c-4.499,2.422 -6.52,8.181 -5.586,13.021c0.502,2.602 3.583,2.978 5.813,3.046c1.941,0.058 4.078,-0.557 4.559,-2.689c1.254,-5.56 -0.872,-10.645 -4.786,-13.378Zm-0.135,-10.877c5.967,-0.866 12.309,0.095 17.472,3.322c4.482,2.802 7.871,7.466 8.557,12.786c1.036,8.038 -1.784,16.585 -7.578,22.26c-4.904,4.803 -12.117,6.715 -18.883,5.665c-6.77,-1.051 -13.52,-4.483 -16.857,-10.666c-3.479,-6.445 -2.568,-14.395 0.515,-20.779c2.878,-5.958 8.212,-11.169 14.881,-12.447c0.626,-0.098 1.26,-0.145 1.893,-0.141Z"/></g></svg>
