<?xml version="1.0" encoding="UTF-8" standalone="no"?>
<!DOCTYPE svg PUBLIC "-//W3C//DTD SVG 1.1//EN" "http://www.w3.org/Graphics/SVG/1.1/DTD/svg11.dtd">
<svg width="100%" height="100%" viewBox="0 0 160 64" version="1.1" xmlns="http://www.w3.org/2000/svg" xmlns:xlink="http://www.w3.org/1999/xlink" xml:space="preserve" xmlns:serif="http://www.serif.com/" style="fill-rule:evenodd;clip-rule:evenodd;stroke-linejoin:round;stroke-miterlimit:2;">
<style>
g { fill: black; }
@media (prefers-color-scheme: dark) {
  g { fill: white; }
}
</style>
    <g transform="matrix(1,0,0,1,1.22222,3.55271e-15)">
        <g id="path2" transform="matrix(0.200326,0,0,0.200326,4.98618,5.25398)">
            <path d="M171.134,10.115C171.84,11.392 172.165,13.133 171.984,14.168C171.316,17.968 168.964,19.601 165.807,20.624C148.634,26.189 132.083,33.584 116.569,42.675C108.995,47.114 101.674,51.972 94.703,57.322C77.002,70.907 61.594,87.37 52.415,107.596C48.489,116.247 45.831,125.496 44.699,134.896C43.859,141.876 43.667,148.993 44.534,156.079C45.456,163.605 47.702,170.993 51.516,177.552C54.435,182.572 58.057,187.166 62.469,190.949C78.478,204.675 100.817,211.151 120.372,213.484C135.569,215.297 149.911,214.536 163.655,211.838C180.311,208.567 198.86,205.535 209.789,192.688C213.426,188.413 215.651,182.73 215.155,177.597C214.323,168.986 208.837,162.234 202.244,157.505C199.697,155.679 196.944,154.058 193.925,153.176C193.329,153.002 192.726,152.834 192.166,152.585C190.099,151.665 188.556,149.62 188.203,147.387C187.894,145.426 188.315,143.471 189.44,142.128C192.131,138.917 195.451,138.925 198.864,140.016C202.713,141.246 206.376,143.094 209.86,145.152C215.301,148.366 220.413,152.243 224.38,157.138C228.916,162.738 232.424,169.058 234.1,174.975C236.728,184.255 235.629,194.287 231.397,202.941C226.991,211.953 219.08,220.371 212.105,225.647C203.69,232.011 193.837,237.646 185.27,240.728C169.125,246.537 152.174,249.708 137.48,249.446C114.349,249.033 87.966,241.122 69.152,231.056C56.668,224.377 45.644,215.491 37.2,204.588C25.491,189.471 20.135,168.125 20.595,151.172C21.241,127.364 31.624,101.506 43.916,84.37C54.228,69.995 67.442,57.677 81.69,47.204C99.365,34.213 118.987,23.818 139.427,15.388C147.133,12.21 154.954,9.353 162.902,6.841C166.149,5.814 169.708,7.882 171.134,10.115Z"/>
        </g>
        <g id="path6" transform="matrix(0.200326,0,0,0.200326,4.98618,5.25398)">
            <path d="M102.759,140.491C105.163,141.239 106.575,143.558 107.173,145.907C109.053,153.297 112.049,160.342 114.334,167.607C114.9,169.406 115.491,171.255 115.562,173.15C115.035,176.173 112.807,178.473 111.288,181.035C110.09,183.054 108.934,185.271 107.037,186.668C106.402,187.136 105.608,186.151 105.035,185.737C102.131,183.639 99.683,180.985 97.002,178.615C95.704,177.468 94.61,175.892 94.729,174.088C94.477,169.097 95.218,164.126 95.543,159.153C95.79,155.392 96.107,151.636 96.136,147.867C96.153,145.699 96.43,143.404 98.048,141.777C99.281,140.536 101.093,139.973 102.759,140.491Z"/>
        </g>
        <g id="path10" transform="matrix(0.200326,0,0,0.200326,4.98618,5.25398)">
            <path d="M151.528,151.13C147.029,153.552 145.008,159.311 145.942,164.151C146.444,166.753 149.525,167.129 151.755,167.197C153.696,167.255 155.833,166.64 156.314,164.508C157.568,158.948 155.442,153.863 151.528,151.13ZM151.393,140.253C157.36,139.387 163.702,140.348 168.865,143.575C173.347,146.377 176.736,151.041 177.422,156.361C178.458,164.399 175.638,172.946 169.844,178.621C164.94,183.424 157.727,185.336 150.961,184.286C144.191,183.235 137.441,179.803 134.104,173.62C130.625,167.175 131.536,159.225 134.619,152.841C137.497,146.883 142.831,141.672 149.5,140.394C150.126,140.296 150.76,140.249 151.393,140.253Z"/>
        </g>
    </g>
    <g transform="matrix(4.10469,0,0,3.89982,-222.482,-45.2143)">
        <text x="72.932px" y="24.026px" style="font-family:'Roboto-Regular', 'Roboto';font-size:12px;">Gio</text>
    </g>
    <g transform="matrix(1,0,0,1,7.42299,-0.815793)">
        <rect x="58.624" y="3.957" width="2.015" height="55.516"/>
    </g>
</svg>
